#define different_blah_74x32_width 74
#define different_blah_74x32_height 32
static unsigned char different_blah_74x32_bits[] = {
   0x00, 0x00, 0x00, 0x00, 0x00, 0x00, 0x00, 0x00, 0x00, 0x00, 0x00, 0x00,
   0x00, 0x00, 0x00, 0x00, 0x00, 0x00, 0x00, 0x00, 0x00, 0x00, 0x00, 0x00,
   0x00, 0x08, 0x00, 0x00, 0x00, 0x00, 0x00, 0x00, 0x00, 0x00, 0x00, 0x1c,
   0x00, 0x00, 0x00, 0x00, 0x00, 0x01, 0x00, 0x00, 0x00, 0x1c, 0x00, 0x00,
   0x00, 0x00, 0x00, 0x01, 0x00, 0x00, 0x00, 0x1c, 0x04, 0x00, 0x00, 0x00,
   0x00, 0x01, 0x00, 0x00, 0x00, 0x1c, 0xfe, 0x01, 0xf8, 0x00, 0x00, 0x1d,
   0xdf, 0xf1, 0x1d, 0x1c, 0xfe, 0xff, 0xff, 0x00, 0x00, 0x13, 0x33, 0x31,
   0x13, 0x1c, 0xfc, 0xff, 0xff, 0x00, 0x00, 0x31, 0x11, 0x12, 0x21, 0x1c,
   0x00, 0xfe, 0x87, 0x00, 0x00, 0x21, 0x11, 0x12, 0x21, 0x1c, 0x00, 0x00,
   0x00, 0x00, 0x00, 0x21, 0x11, 0x12, 0x21, 0x1c, 0x00, 0x00, 0x00, 0x00,
   0x00, 0x21, 0x11, 0x12, 0x21, 0x1c, 0x00, 0x00, 0x00, 0x00, 0x00, 0x21,
   0x11, 0x12, 0x21, 0x08, 0x00, 0x00, 0x00, 0x00, 0x00, 0x00, 0x00, 0x00,
   0x00, 0x00, 0x00, 0x00, 0x00, 0x00, 0x00, 0x00, 0x00, 0x00, 0x00, 0x00,
   0x00, 0x00, 0x00, 0x00, 0x00, 0x00, 0x00, 0x00, 0x00, 0x00, 0x00, 0x00,
   0x00, 0x00, 0x00, 0x00, 0x00, 0x00, 0x00, 0x00, 0x00, 0x00, 0x00, 0x00,
   0x00, 0x00, 0x00, 0x00, 0x00, 0x00, 0x00, 0x00, 0x40, 0x00, 0x00, 0x20,
   0x00, 0x00, 0x00, 0x84, 0x03, 0x00, 0xe0, 0x00, 0x00, 0x70, 0x00, 0x01,
   0x00, 0xce, 0x07, 0x38, 0xf0, 0x00, 0x00, 0x70, 0x80, 0x03, 0x00, 0xce,
   0x0f, 0x7e, 0x70, 0x00, 0x00, 0x20, 0x00, 0x01, 0x00, 0xee, 0x1e, 0xff,
   0x78, 0x00, 0x00, 0x00, 0x00, 0x30, 0x00, 0xfe, 0x1c, 0xe7, 0x3c, 0x00,
   0xc0, 0x00, 0x00, 0x78, 0x00, 0x7e, 0xbc, 0xe3, 0x1d, 0x00, 0xe0, 0x07,
   0x00, 0x3c, 0x00, 0x3e, 0xb8, 0xc3, 0x1f, 0x00, 0xc0, 0x1f, 0x00, 0x1e,
   0x00, 0x1e, 0xf8, 0x81, 0x0f, 0x00, 0x80, 0xff, 0xff, 0x0f, 0x00, 0x0e,
   0xf0, 0x01, 0x07, 0x00, 0x00, 0xf8, 0xff, 0x07, 0x00, 0x04, 0xc0, 0x00,
   0x00, 0x00, 0x00, 0xe0, 0xff, 0x03, 0x00, 0x00, 0x00, 0x00, 0x00, 0x00,
   0x00, 0x00, 0x00, 0x00, 0x00, 0x00, 0x00, 0x00, 0x00, 0x00, 0x00, 0x00,
   0x00, 0x00, 0x00, 0x00, 0x00, 0x00, 0x00, 0x00 };
