#define m_width 10
#define m_height 13
static unsigned char m_bits[] = {
   0xff, 0x03, 0x39, 0x02, 0x31, 0x02, 0x31, 0x02, 0x11, 0x02, 0x45, 0x02,
   0x49, 0x02, 0x49, 0x02, 0x69, 0x03, 0x7d, 0x02, 0x79, 0x02, 0x7d, 0x02,
   0xff, 0x03 };
