#define n_width 10
#define n_height 13
static unsigned char n_bits[] = {
   0xff, 0x03, 0x79, 0x03, 0x71, 0x02, 0x31, 0x03, 0x61, 0x02, 0x61, 0x02,
   0x49, 0x02, 0x49, 0x03, 0x19, 0x02, 0x19, 0x03, 0x39, 0x02, 0x19, 0x02,
   0xff, 0x03 };
