#define o_width 10
#define o_height 13
static unsigned char o_bits[] = {
   0xff, 0x03, 0x87, 0x03, 0x23, 0x03, 0x39, 0x03, 0x79, 0x02, 0x7c, 0x02,
   0x79, 0x02, 0x7c, 0x02, 0x79, 0x02, 0x39, 0x03, 0x33, 0x03, 0x83, 0x03,
   0xff, 0x03 };
