#define dash_width 8
#define dash_height 16
static unsigned char dash_bits[] = {
   0x00, 0x00, 0x00, 0x00, 0x00, 0x00, 0x3c, 0x3c, 0x3c, 0x00, 0x00, 0x00,
   0x00, 0x00, 0x00, 0x00 };
