#define o_width 8
#define o_height 16
static unsigned char o_bits[] = {
   0x00, 0x00, 0x78, 0x84, 0xc2, 0x81, 0x81, 0x81, 0x81, 0x81, 0x42, 0x6e,
   0x38, 0x00, 0x00, 0x00 };
