#define vert_proper_width 8
#define vert_proper_height 16
static unsigned char vert_proper_bits[] = {
   0x00, 0x18, 0x38, 0x38, 0x18, 0x18, 0x18, 0x18, 0x18, 0x18, 0x18, 0x18,
   0x18, 0x18, 0x18, 0x00 };
