#define i_width 9
#define i_height 13
static unsigned char i_bits[] = {
   0xff, 0x01, 0x01, 0x01, 0x47, 0x01, 0xcf, 0x01, 0xcf, 0x01, 0xef, 0x01,
   0xcf, 0x01, 0xef, 0x01, 0xcf, 0x01, 0xcf, 0x01, 0xcf, 0x01, 0x01, 0x01,
   0xff, 0x01 };
